<?xml version="1.0" encoding="UTF-8" standalone="no"?> <svg xmlns="http://www.w3.org/2000/svg" viewBox="0 0 64 64"><defs><style>.cls-1{fill:#b3b3b3;}.cls-2,.cls-3,.cls-6{fill:none;stroke-miterlimit:10;stroke-width:2px;}.cls-2{stroke:#f2f2f2;}.cls-3{stroke:#a67c52;}.cls-4{fill:#39b54a;}.cls-5{fill:#f7931e;}.cls-6{stroke:#f7931e;stroke-linecap:round;}</style></defs><title>road, route, travel, city, trip, </title><g id="Flat"><rect class="cls-1" x="4" y="39" width="56" height="22"/><line class="cls-2" x1="29" y1="50" x2="35" y2="50"/><line class="cls-3" x1="11" y1="32" x2="11" y2="39"/><path class="cls-4" d="M11,33h0a4,4,0,0,1-4-4V23a4,4,0,0,1,4-4h0a4,4,0,0,1,4,4v6A4,4,0,0,1,11,33Z"/><line class="cls-3" x1="23" y1="25" x2="23" y2="39"/><path class="cls-4" d="M23,26h0a4,4,0,0,1-4-4V16a4,4,0,0,1,4-4h0a4,4,0,0,1,4,4v6A4,4,0,0,1,23,26Z"/><path class="cls-4" d="M42,33h-.14a4,4,0,0,0-7.72,0H34a3,3,0,0,0,0,6h8a3,3,0,0,0,0-6Z"/><circle class="cls-5" cx="54" cy="10" r="4"/><line class="cls-6" x1="54" y1="3" x2="54" y2="6"/><line class="cls-6" x1="54" y1="14" x2="54" y2="17"/><line class="cls-6" x1="61" y1="10" x2="58" y2="10"/><line class="cls-6" x1="50" y1="10" x2="47" y2="10"/><line class="cls-6" x1="58.95" y1="5.05" x2="56.83" y2="7.17"/><line class="cls-6" x1="51.17" y1="12.83" x2="49.05" y2="14.95"/><line class="cls-6" x1="49.05" y1="5.05" x2="51.17" y2="7.17"/><line class="cls-6" x1="56.83" y1="12.83" x2="58.95" y2="14.95"/><line class="cls-3" x1="53" y1="33" x2="53" y2="39"/><path class="cls-4" d="M53,34h0a4,4,0,0,1-4-4V25a4,4,0,0,1,4-4h0a4,4,0,0,1,4,4v5A4,4,0,0,1,53,34Z"/><line class="cls-2" x1="39" y1="50" x2="45" y2="50"/><line class="cls-2" x1="49" y1="50" x2="55" y2="50"/><line class="cls-2" x1="9" y1="50" x2="15" y2="50"/><line class="cls-2" x1="19" y1="50" x2="25" y2="50"/></g></svg>